<?xml version="1.0" encoding="utf-8"?>
<!-- Svg Vector Icons : http://www.onlinewebfonts.com/icon -->
<!DOCTYPE svg PUBLIC "-//W3C//DTD SVG 1.1//EN" "http://www.w3.org/Graphics/SVG/1.1/DTD/svg11.dtd">
<svg version="1.1" xmlns="http://www.w3.org/2000/svg" xmlns:xlink="http://www.w3.org/1999/xlink" x="0px" y="0px" viewBox="0 0 1000 1000" enable-background="new 0 0 1000 1000" xml:space="preserve">
<metadata> Svg Vector Icons : http://www.onlinewebfonts.com/icon </metadata>
<g><path d="M500,990c-13.5,0-26.3-3.2-37-9.4L81.2,762.4c-22-12.6-37.4-39-37.4-64.2V301.6c0-25.3,15.4-51.7,37.3-64.3L462.9,19.2c21.5-12.3,52.6-12.3,74.1,0l381.8,218.2c22,12.5,37.4,39,37.4,64.2v396.6c0,25.3-15.4,51.7-37.4,64.3L537.1,980.6C526.3,986.8,513.5,990,500,990z M123.1,695.1L500,910.4l376.9-215.4V304.8L500,89.4L123.1,304.8V695.1z"/><path d="M500,549.5c-5.1,0-10.4-1.3-15.1-4.1L68.3,299.2c-14.1-8.3-18.8-26.6-10.5-40.8c8.4-14.1,26.6-18.8,40.8-10.5l416.5,246.1c14.2,8.4,18.8,26.6,10.5,40.7C520.1,544.3,510.2,549.5,500,549.5z"/><path d="M718.2,410.7c-5.2,0-10.4-1.3-15.1-4.1L305.7,171.7c-14.1-8.3-18.8-26.6-10.5-40.8c8.4-14.1,26.6-18.8,40.8-10.5l397.3,234.8c14.2,8.4,18.8,26.6,10.5,40.8C738.3,405.4,728.3,410.7,718.2,410.7z"/><path d="M500,549.5c-10.2,0-20.1-5.2-25.6-14.6c-8.4-14.1-3.7-32.4,10.5-40.7L901.4,248c14.1-8.3,32.4-3.7,40.7,10.5c8.4,14.1,3.7,32.4-10.5,40.8L515.1,545.4C510.4,548.2,505.2,549.5,500,549.5z"/><path d="M509.9,985.9c-16.4,0-29.8-13.3-29.8-29.8V519.7c0-16.4,13.3-29.8,29.8-29.8c16.4,0,29.8,13.3,29.8,29.8v436.4C539.7,972.5,526.3,985.9,509.9,985.9z"/></g>
</svg>